<?xml version="1.0" encoding="UTF-8" standalone="no"?>
<!-- Created with Inkscape (http://www.inkscape.org/) -->

<svg
    width="900"
    height="900"
    viewBox="0 0 238.12499 238.12501"
    version="1.1"
    id="svg5"
    xmlns:inkscape="http://www.inkscape.org/namespaces/inkscape"
    xmlns:sodipodi="http://sodipodi.sourceforge.net/DTD/sodipodi-0.dtd"
    xmlns="http://www.w3.org/2000/svg"
>
    <sodipodi:namedview
        id="namedview7"
        pagecolor="#505050"
        bordercolor="#ffffff"
        borderopacity="1"
        inkscape:pageshadow="0"
        inkscape:pageopacity="0"
        inkscape:pagecheckerboard="1"
        inkscape:document-units="mm"
        showgrid="false"
        inkscape:zoom="0.35355339"
        inkscape:rotation="1"
        inkscape:cx="503.4785"
        inkscape:cy="380.50676"
        inkscape:window-width="1920"
        inkscape:window-height="1017"
        inkscape:window-x="1912"
        inkscape:window-y="-8"
        inkscape:window-maximized="1"
        inkscape:current-layer="layer1"
        units="px"/>
    <defs
        id="defs2"/>
    <g
        inkscape:label="Lag 1"
        inkscape:groupmode="layer"
        id="layer1">
        <g
            id="g2813"
            transform="matrix(1.0489509,0,0,1.0501749,20.948421,4.2423638)">
            <path
                style="fill:#7da2fe;stroke-width:0.264583"
                d="M 84.010426,191.09053 V 159.47282 H 55.567718 27.125009 v -4.6302 -4.63021 h -9.525 -9.5249995 v 27.38437 27.38438 H -1.4499902 -10.97499 v -41.01042 -41.01041 h -4.497917 -4.497917 V 77.319702 31.679081 h 4.497917 4.497917 v -4.497917 -4.497916 h 4.7624998 4.7625 v -4.497917 -4.497916 h 4.7624997 4.7625 V 9.0572074 4.4269984 h 9.5249995 9.525 V 0.19366542 -4.0396676 H 93.535423 159.94585 V 0.19366542 4.4269984 h 9.525 9.525 v 4.630209 4.6302076 h 4.7625 4.7625 v 4.497916 4.497917 h 4.63021 4.63021 v 4.497916 4.497917 h 4.6302 4.63021 v 45.640621 45.640628 l -4.56406,-3e-5 -4.56406,-2e-5 0.0906,41.01044 0.0906,41.01044 h -9.68172 -9.68172 v -27.38438 -27.38437 h -9.39271 -9.39271 v 4.63021 4.6302 h -28.44271 -28.44271 v 31.61771 31.61771 h -9.525007 -9.524997 z"
                id="path2883"/>
            <path
                style="fill:#a7a7a7;stroke-width:0.264583"
                d="m 84.010426,190.95824 v -31.75 H 55.567718 27.125009 v -4.49792 -4.49791 h -9.525 -9.5249995 v 27.38437 27.38438 H -1.4499902 -10.97499 v -41.01042 -41.01041 h -4.497917 -4.497917 V 77.451992 31.943664 h 4.497917 4.497917 v -4.630208 -4.630208 h 4.7624998 4.7625 v -4.497917 -4.497916 h 4.7624997 4.7625 V 9.0572074 4.4269984 h 9.5249995 9.525 V 0.19366542 -4.0396676 H 93.535423 159.94585 V 0.19366542 4.4269984 h 9.38646 9.38646 l 0.0724,4.564063 0.0724,4.5640616 4.69635,0.07225 4.69636,0.07225 v 4.491811 4.491812 h 4.75625 4.75625 l 0.0724,4.564062 0.0724,4.564063 4.56406,0.07239 4.56406,0.0724 v 45.502081 45.502088 l -4.56406,-3e-5 -4.56406,-2e-5 0.0906,41.01044 0.0906,41.01044 h -9.68172 -9.68172 v -27.38438 -27.38437 h -9.39271 -9.39271 v 4.49791 4.49792 H 131.50321 103.0605 v 31.75 31.75 h -9.525007 -9.524997 z"
                id="path2879"/>
            <path
                style="fill:#989898;stroke-width:0.264583"
                d="m 84.010426,190.95824 v -31.75 H 55.567718 27.125009 v -4.49792 -4.49791 h -9.525 -9.5249995 v 27.38437 27.38438 H -1.4499902 -10.97499 v -41.01042 -41.01041 h -4.497917 -4.497917 V 77.451992 31.943664 h 4.497917 4.497917 v -4.630208 -4.630208 h 4.7624998 4.7625 v -4.497917 -4.497916 h 4.7624997 4.7625 V 9.0572074 4.4269984 h 9.5249995 9.525 V 0.19366542 -4.0396676 H 93.535423 159.94585 V 0.19366542 4.4269984 h 9.38646 9.38646 l 0.0724,4.564063 0.0724,4.5640616 4.69635,0.07225 4.69636,0.07225 v 4.491811 4.491812 h 4.75625 4.75625 l 0.0724,4.564062 0.0724,4.564063 4.56406,0.07239 4.56406,0.0724 v 45.502081 45.502088 h -4.63021 -4.6302 v 41.01375 41.01376 l -9.45886,-0.0695 -9.45885,-0.0695 -0.0674,-27.31822 -0.0674,-27.31823 h -9.39148 -9.39147 v 4.49791 4.49792 h -28.44271 -28.44271 v 31.75 31.75 h -9.525007 -9.524997 z"
                id="path2877"/>
            <path
                style="fill:#4b7efe;stroke-width:0.264583"
                d="m 84.010426,190.95824 v -31.75 H 55.567718 27.125009 v -4.49792 -4.49791 h -9.525 -9.5249995 v 27.38437 27.38438 H -1.4499902 -10.97499 v -41.01042 -41.01041 h -4.497917 -4.497917 V 77.451992 31.943664 h 4.497917 4.497917 v -4.630208 -4.630208 h 4.7624998 4.7625 v -4.497917 -4.497916 h 4.7624997 4.7625 V 9.0572074 4.4269984 h 9.5249995 9.525 V 0.19366542 -4.0396676 H 93.535423 159.94585 V 0.19366542 4.4269984 h 9.38646 9.38646 l 0.0724,4.564063 0.0724,4.5640616 4.69635,0.07225 4.69636,0.07225 v 4.491811 4.491812 h 4.75625 4.75625 l 0.0724,4.564062 0.0724,4.564063 4.56406,0.07239 4.56406,0.0724 v 45.502081 45.502088 h -4.63021 -4.6302 v 41.01041 41.01042 h -9.39271 -9.39271 v -27.38438 -27.38437 h -9.525 -9.525 v 4.49791 4.49792 h -28.44271 -28.44271 v 31.75 31.75 h -9.525007 -9.524997 z"
                id="path2875"/>
            <path
                style="fill:#3970fe;stroke-width:0.264583"
                d="m 84.010426,190.95824 v -31.75 H 55.567718 27.125009 v -4.49792 -4.49791 h -9.525 -9.5249995 v 27.38437 27.38438 h -9.5494294 -9.5494291 l 0.09057,-41.01044 0.09058,-41.01044 -4.564063,2e-5 -4.564063,3e-5 V 77.451992 31.943664 h 4.497917 4.497917 v -4.630208 -4.630208 h 4.7624999 4.7625 v -4.497917 -4.497916 h 4.7624996 4.7625 V 9.0572074 4.4269984 h 9.5249995 9.525 V 0.19366542 -4.0396676 H 93.535423 159.94585 V 0.19366542 4.4269984 h 9.38646 9.38646 l 0.0724,4.564063 0.0724,4.5640616 4.69635,0.07225 4.69636,0.07225 v 4.491811 4.491812 h 4.7625 4.7625 v 4.630208 4.630208 h 4.6302 4.63021 v 45.50833 45.508338 h -4.63021 -4.6302 v 41.01041 41.01042 h -9.39271 -9.39271 v -27.38438 -27.38437 h -9.525 -9.525 v 4.49791 4.49792 h -28.44271 -28.44271 v 31.75 31.75 h -9.525007 -9.524997 z"
                id="path2873"/>
            <path
                style="fill:#2a65fd;stroke-width:0.264583"
                d="m 84.010426,190.95824 v -31.75 H 55.567718 27.125009 v -4.49792 -4.49791 h -9.525 -9.5249995 v 27.38437 27.38438 h -9.5494294 -9.5494291 l 0.09057,-41.01044 0.09058,-41.01044 -4.564063,2e-5 -4.564063,3e-5 V 77.458242 31.956161 l 4.564063,-0.0724 4.564063,-0.07239 0.07239,-4.564063 0.07239,-4.564062 h 4.6239601 4.6239604 v -4.497917 -4.497916 h 4.7625 4.7625 V 9.0572054 4.4269964 h 9.5249995 9.525 V 0.19366342 -4.0396696 H 93.535423 159.94585 V 0.19366342 4.4269964 h 9.39271 9.39271 v 4.630209 4.6302076 h 4.7625 4.7625 v 4.497916 4.497917 h 4.7625 4.7625 v 4.630208 4.630208 h 4.6302 4.63021 v 45.50833 45.508338 h -4.63021 -4.6302 v 41.01041 41.01042 h -9.39271 -9.39271 v -27.38438 -27.38437 h -9.525 -9.525 v 4.49791 4.49792 h -28.44271 -28.44271 v 31.75 31.75 H 93.535423 84.010427 Z M 8.0750095,136.58637 v -4.36563 h -4.630208 -4.6302083 v 4.36563 4.36562 h 4.6302083 4.630208 z m 180.1812605,0 v -4.36563 h -4.63021 -4.63021 v 4.36563 4.36562 h 4.63021 4.63021 z"
                id="path2871"/>
            <path
                style="fill:#205ffd;stroke-width:0.264583"
                d="m 84.010426,190.95824 v -31.75 H 55.567718 27.125009 v -4.49792 -4.49791 h -4.894791 -4.894792 v -4.49792 -4.49792 H 12.705218 8.0750095 v 31.8823 31.88229 h -9.5490926 -9.5490929 l 0.07768,-41.07657 0.07768,-41.07656 -4.551508,-0.0724 -4.551507,-0.0724 V 77.319702 31.956161 l 4.564063,-0.0724 4.564062,-0.07239 0.07239,-4.564063 0.07239,-4.564062 h 4.6239607 4.6239604 v -4.497917 -4.497916 h 4.7624994 4.7625 V 9.1928384 4.6982644 l 9.4588545,-0.06949 9.458854,-0.06949 0.0727,-4.29947898 0.0727,-4.29947902 h 66.40388 66.403867 V 0.32595142 4.6915764 h 9.39271 9.39271 v 4.497916 4.4979166 h 4.7625 4.7625 v 4.497916 4.497917 h 4.7625 4.7625 v 4.630208 4.630208 h 4.6302 4.63021 v 45.369784 45.369798 l -4.56406,0.0724 -4.56406,0.0724 -0.067,41.07656 -0.067,41.07657 h -9.39187 -9.39188 v -25.0925 c 0,-13.80087 -0.0786,-28.14791 -0.17471,-31.88229 l -0.17471,-6.7898 h -4.58779 -4.58779 v 4.49792 4.49792 h -4.7625 -4.7625 v 4.49791 4.49792 H 131.5031 103.06039 v 31.75 31.75 H 93.535383 84.010388 Z M 8.0750095,136.45407 v -4.49791 h -4.7625 -4.7624997 v 4.49791 4.49792 h 4.7624997 4.7625 z m 180.1812605,0 v -4.49791 h -4.63021 -4.63021 v 4.49791 4.49792 h 4.63021 4.63021 z"
                id="path2869"/>
            <path
                style="fill:#1b5bfd;stroke-width:0.264583"
                d="m 84.010426,190.95824 v -31.75 H 55.567718 27.125009 v -4.49792 -4.49791 h -4.7625 -4.7625 v -4.49792 -4.49792 h -4.7625 -4.7624995 v 31.8823 31.88229 h -9.5490926 -9.5490929 l 0.07768,-41.07657 0.07768,-41.07656 -4.551508,-0.0724 -4.551507,-0.0724 V 77.319702 31.956161 l 4.564063,-0.0724 4.564062,-0.07239 0.07239,-4.564063 0.07239,-4.564062 h 4.6239607 4.6239604 v -4.497917 -4.497916 h 4.7624994 4.7625 V 9.1894964 4.6915804 h 9.5249995 9.525 V 0.32595542 -4.0396696 h 66.271573 66.271573 l 0.0727,4.29947902 0.0727,4.29947898 9.45885,0.06949 9.45886,0.06949 v 4.494574 4.4945746 h 4.7625 4.7625 v 4.497916 4.497917 h 4.7625 4.7625 v 4.630208 4.630208 h 4.6302 4.63021 v 45.369786 45.369798 l -4.56406,0.0724 -4.56406,0.0724 -0.067,41.07656 -0.067,41.07657 h -9.39187 -9.39188 v -25.0925 c 0,-13.80087 -0.0786,-28.14791 -0.17471,-31.88229 l -0.17471,-6.7898 h -4.58779 -4.58779 v 4.49792 4.49792 h -4.89479 -4.89479 v 4.49791 4.49792 h -28.31042 -28.31042 v 31.75 31.75 h -9.525003 -9.524996 z m 18.785424,-36.11562 v -4.36563 h -9.392717 -9.392707 v 4.36563 4.36562 h 9.392707 9.392717 z M 8.0750095,136.45407 v -4.49791 h -4.7625 -4.7624997 v 4.49791 4.49792 h 4.7624997 4.7625 z m 180.1812605,0 v -4.49791 h -4.63021 -4.63021 v 4.49791 4.49792 h 4.63021 4.63021 z"
                id="path2867"/>
            <path
                style="fill:#0d51fd;stroke-width:0.264583"
                d="m 84.010426,190.95824 v -31.75 H 55.567718 27.125009 v -4.49792 -4.49791 h -4.7625 -4.7625 v -4.49792 -4.49792 h -4.7625 -4.7624995 v 31.8823 31.88229 H -1.4499902 -10.97499 v -36.5125 -36.5125 h 4.7624998 4.7625 v -4.46443 -4.46443 l -9.2604168,-0.19551 -9.260417,-0.19552 V 77.289972 31.943664 h 4.630209 4.630208 v -4.630208 -4.630208 h 4.6302085 4.6302083 v -4.497917 -4.497916 h 4.7624997 4.7625 V 9.1894984 4.6915824 h 9.5249995 9.525 V 0.32595742 -4.0396676 h 66.271574 66.271577 l 0.0727,4.29947902 0.0727,4.29947898 9.45885,0.06949 9.45886,0.06949 v 4.494574 4.4945746 h 4.7625 4.7625 v 4.497916 4.497917 h 4.7625 4.7625 v 4.630208 4.630208 h 4.6302 4.63021 v 45.344344 45.344348 l -9.26041,0.19567 -9.26042,0.19568 v 4.46622 4.46623 h 4.63021 4.63021 v 36.5125 36.5125 h -9.39271 -9.39271 v -25.0925 c 0,-13.80087 -0.0786,-28.14791 -0.17471,-31.88229 l -0.17471,-6.7898 h -4.58779 -4.58779 v 4.49792 4.49792 h -4.89479 -4.89479 v 4.49791 4.49792 h -28.31042 -28.31042 v 31.75 31.75 h -9.525007 -9.524997 z m 19.050004,-36.24792 v -4.49791 h -9.525007 -9.524997 v 4.49791 4.49792 h 9.524997 9.525007 z M 8.0750095,136.45407 v -4.49791 h -4.7625 -4.7624997 v 4.49791 4.49792 h 4.7624997 4.7625 z m 180.1812605,-0.006 v -4.50402 l -4.69636,0.0722 -4.69635,0.0722 -0.0725,4.43177 -0.0725,4.43177 h 4.7689 4.7689 z"
                id="path2865"/>
            <path
                style="fill:#094efd;stroke-width:0.264583"
                d="m 84.010426,190.95824 v -31.75 h 9.524997 9.525007 v -4.50122 -4.50121 l -9.591147,0.0694 -9.591149,0.0694 -0.07254,4.43177 -0.07254,4.43177 H 55.429028 27.125009 v -4.49792 -4.49791 h -4.756253 -4.75625 l -0.0724,-4.56406 -0.07239,-4.56407 -4.696355,-0.0722 -4.6963535,-0.0722 v 32.02069 32.02069 h -9.5249997 -9.5249998 v -36.5125 -36.5125 h 4.7624998 4.7625 v -4.46623 -4.46622 l -9.2604168,-0.19568 -9.260417,-0.19567 V 77.288012 31.943664 h 4.630209 4.630208 v -4.491812 -4.49181 l 4.6963543,-0.07225 4.6963542,-0.07225 0.072394,-4.564063 0.072394,-4.564062 h 4.623961 4.62396 V 9.1895004 4.6915844 h 9.5249995 9.525 V 0.32595942 -4.0396656 h 66.271575 66.271577 l 0.0727,4.29947902 0.0727,4.29947898 9.45885,0.06949 9.45886,0.06949 v 4.494574 4.4945746 h 4.75625 4.75625 l 0.0724,4.564062 0.0724,4.564063 4.69635,0.07225 4.69636,0.07225 v 4.49181 4.491812 h 4.6302 4.63021 v 45.345274 45.345268 l -9.39271,0.19567 -9.3927,0.19568 v 4.4653 4.4653 h 4.7625 4.7625 v 36.5125 36.5125 h -9.39271 -9.39271 l -5.3e-4,-25.06927 c -2.6e-4,-13.7881 -0.0789,-28.19466 -0.17475,-32.01459 l -0.17423,-6.94531 h -4.58774 -4.58775 v 4.63021 4.63021 h -4.89479 -4.89479 v 4.49791 4.49792 h -28.31042 -28.31042 v 31.75 31.75 H 93.535433 84.010435 Z M 8.0750095,136.45407 v -4.49791 h -4.7625 -4.7624997 v 4.49791 4.49792 h 4.7624997 4.7625 z m 180.1812605,0 v -4.49791 h -4.7625 -4.7625 v 4.49791 4.49792 h 4.7625 4.7625 z"
                id="path2863"/>
            <path
                style="fill:#044afd;stroke-width:0.264583"
                d="m 84.010426,190.95824 v -31.75 h 9.524997 9.525007 v 31.75 31.75 H 93.535423 84.010426 Z M -10.97499,168.46866 v -36.5125 h 4.7624998 4.7625 v -4.46623 -4.46622 l -9.2604168,-0.19568 -9.260417,-0.19567 V 77.288012 31.943664 h 4.630209 4.630208 v -4.491812 -4.49181 l 4.6963543,-0.07225 4.6963542,-0.07225 0.072394,-4.564063 0.072394,-4.564062 h 4.623961 4.62396 V 9.1895004 4.6915844 h 9.5249995 9.525 V 0.32595942 -4.0396656 h 66.271573 66.271577 l 0.0727,4.29947902 0.0727,4.29947898 9.45885,0.06949 9.45886,0.06949 v 4.494574 4.4945746 h 4.7625 4.7625 v 4.630208 4.630208 h 4.7625 4.7625 v 4.497917 4.497916 h 4.6302 4.63021 v 45.345282 45.345268 l -9.39271,0.19567 -9.3927,0.19568 v 4.4653 4.4653 h 4.7625 4.7625 v 36.5125 36.5125 h -9.39271 -9.39271 l -5.3e-4,-25.06927 c -2.6e-4,-13.7881 -0.079,-28.19733 -0.1749,-32.02052 l -0.17436,-6.95124 -4.65375,0.0721 -4.65375,0.0721 -0.0724,4.56407 -0.0724,4.56406 h -4.75625 -4.75625 v 4.49791 4.49792 h -23.68021 -23.68021 v -4.49792 -4.49791 H 93.403133 74.485426 v 4.49791 4.49792 H 50.805218 27.125009 v -4.49792 -4.49791 h -4.7625 -4.7625 v -4.63021 -4.63021 h -4.7625 -4.7624995 v 32.01458 32.01459 H -1.4499902 -10.97499 Z M 8.0750095,136.45407 v -4.49791 h -4.7625 -4.7624997 v 4.49791 4.49792 h 4.7624997 4.7625 z m 180.1812605,0 v -4.49791 h -4.7625 -4.7625 v 4.49791 4.49792 h 4.7625 4.7625 z"
                id="path2861"/>
            <path
                style="fill:#0249fd;stroke-width:0.264583"
                d="m 84.010426,190.95824 v -31.75 h 9.524997 9.525007 v 31.75 31.75 H 93.535423 84.010426 Z M -10.97499,168.46866 v -36.5125 h 4.7624998 4.7625 v 4.49791 4.49792 h 4.7624997 4.7625 v -4.49792 -4.49791 h -4.62396 -4.6239606 l -0.072394,-4.56406 -0.072394,-4.56407 -9.3265629,-0.0695 -9.326563,-0.0695 V 77.316322 31.943664 h 4.630209 4.630209 v -4.491812 -4.49181 l 4.6963537,-0.07225 4.6963542,-0.07225 0.072394,-4.564063 0.072394,-4.564062 h 4.6239606 4.62396 V 9.1895004 4.6915844 h 9.5249995 9.525 V 0.32595942 -4.0396656 H 93.403133 159.68127 V 0.32595942 4.6915844 h 9.525 9.525 v 4.497916 4.4979166 h 4.7625 4.7625 v 4.630208 4.630208 h 4.7625 4.7625 v 4.497917 4.497916 h 4.6302 4.63021 v 45.372656 45.372648 l -9.32656,0.0695 -9.32656,0.0695 -0.0724,4.56407 -0.0724,4.56406 h 4.76875 4.76875 v 36.5125 36.5125 h -9.39271 -9.39271 l -5.3e-4,-25.06927 c -2.6e-4,-13.7881 -0.079,-28.19733 -0.1749,-32.02052 l -0.17436,-6.95124 -4.65375,0.0721 -4.65375,0.0721 -0.0724,4.56407 -0.0724,4.56406 h -4.75625 -4.75625 v 4.49791 4.49792 h -23.54792 -23.54792 v -4.49792 -4.49791 H 93.535403 74.485406 v 4.49791 4.49792 H 50.805218 27.125009 v -4.49792 -4.49791 h -4.7625 -4.7625 v -4.63021 -4.63021 h -4.7625 -4.7624995 v 32.01458 32.01459 H -1.4499902 -10.97499 Z m 85.460416,-22.75417 v -4.49792 H 60.330218 46.175009 v 4.49792 4.49792 h 14.155209 14.155208 z m 66.410424,0 v -4.49792 h -14.15521 -14.15521 v 4.49792 4.49792 h 14.15521 14.15521 z m -94.985424,-8.99583 v -4.49792 h -9.392708 -9.392709 v 4.35952 4.35952 l 4.696355,0.0788 c 2.582994,0.0433 6.809713,0.1056 9.392708,0.1384 l 4.696354,0.0596 z m 106.825524,4.32262 6.94532,-0.17421 v -4.32317 -4.32316 h -9.26042 -9.26042 v 4.49792 4.49791 l 2.31511,-5.2e-4 c 1.2733,-2.7e-4 5.44049,-0.0789 9.26041,-0.17476 z m 35.52032,-4.58721 v -4.49791 h -4.7625 -4.7625 v 4.49791 4.49792 h 4.7625 4.7625 z M 26.860426,127.45824 v -4.49791 h -4.630208 -4.630209 v 4.49791 4.49792 h 4.630209 4.630208 z m 142.610424,0 v -4.49791 h 4.63021 4.63021 v -4.49792 -4.49792 h -4.63021 -4.63021 v 4.49792 4.49792 h -4.7625 -4.7625 v 4.49791 4.49792 h 4.7625 4.7625 z M 17.335426,118.46241 v -4.49792 H 12.705218 8.0750095 v 4.49792 4.49792 h 4.6302085 4.630208 z m -9.5249995,-9.26042 v -4.49791 H 3.1802185 -1.4499902 V 77.451992 50.199914 h -4.5877877 -4.5877881 l -0.174712,6.789793 c -0.225011,8.744556 -0.225011,32.180025 0,40.924575 l 0.174712,6.789798 h 4.5877881 4.5877877 v 4.49791 4.49792 h 4.6302087 4.630208 z m 180.4458435,0 v -4.49791 h -4.63021 -4.63021 v 4.49791 4.49792 h 4.63021 4.63021 z m 9.525,-31.749998 V 50.199914 h -4.63021 -4.63021 v 27.252078 27.252088 h 4.63021 4.63021 z M 7.8104265,45.437414 v -4.497917 h -4.630208 -4.6302087 v 4.497917 4.497916 h 4.6302087 4.630208 z m 180.4458435,0 v -4.497917 h -4.63021 -4.63021 v 4.497917 4.497916 h 4.63021 4.63021 z M 17.335426,36.309289 V 31.943664 H 12.705218 8.0750095 v 4.365625 4.365625 h 4.6302085 4.630208 z m 161.395844,0 v -4.365625 h -4.63021 -4.63021 v 4.365625 4.365625 h 4.63021 4.63021 z M 26.860426,27.181164 v -4.497916 h -4.630208 -4.630209 v 4.497916 4.497917 h 4.630209 4.630208 z m 142.610424,0 v -4.497916 h -4.7625 -4.7625 v 4.497916 4.497917 h 4.7625 4.7625 z M 45.910426,18.185331 v -4.497916 h -9.392708 -9.392709 v 4.497916 4.497917 h 9.392709 9.392708 z m 113.770844,0 v -4.497916 h -9.26042 -9.26042 v 4.497916 4.497917 h 9.26042 9.26042 z M 140.89585,9.0997184 v -4.323114 l -7.18674,-0.174803 c -9.31344,-0.22653 -71.553238,-0.22615 -80.588788,4.93e-4 l -6.945313,0.174212 v 4.323163 4.3231616 h 47.360414 47.360427 z"
                id="path2859"/>
            <path
                style="fill:#0046fd;stroke-width:0.264583"
                d="m 84.010426,190.95824 v -31.75 h 9.524997 9.525007 v 31.75 31.75 H 93.535423 84.010426 Z M -10.97499,168.46866 v -36.5125 h 4.7624998 4.7625 v 4.49791 4.49792 h 4.7624997 4.7625 v 32.01458 32.01459 H -1.4499902 -10.97499 Z m 189.9703,11.44323 c -2.7e-4,-13.7881 -0.0789,-28.19466 -0.17475,-32.01459 l -0.17422,-6.94531 h 4.80496 4.80497 v -4.49792 -4.49791 h 4.7625 4.7625 v 36.5125 36.5125 h -9.39271 -9.39271 l -5.3e-4,-25.06927 z M 27.125009,154.71032 v -4.49791 h -4.7625 -4.7625 v -8.99584 -8.99583 h 4.630209 4.630208 v -4.63021 -4.6302 h -4.623962 -4.623958 l -0.0724,4.56406 -0.07239,4.56406 -4.696355,0.0722 -4.6963535,0.0722 v -4.5938 -4.5938 l -7.186735,-0.17481 c -3.9527053,-0.0961 -10.2630178,-0.1748 -14.0229175,-0.1748 h -6.836179 V 77.319702 31.943664 h 4.630209 4.630208 v -4.491812 -4.49181 l 4.6963543,-0.07225 4.6963542,-0.07225 0.072394,-4.564063 0.072394,-4.564062 h 4.623961 4.62396 V 9.1895004 4.6915844 h 9.5249995 9.525 V 0.32595942 -4.0396656 H 93.403133 159.68127 V 0.32595942 4.6915844 h 9.525 9.525 v 4.497916 4.4979166 h 4.7625 4.7625 v 4.630208 4.630208 h 4.7625 4.7625 v 4.497917 4.497916 h 4.6302 4.63021 v 45.376036 45.376038 l -7.0776,5.3e-4 c -3.89268,2.7e-4 -10.20027,0.0789 -14.01685,0.1746 l -6.93925,0.17406 -0.0722,4.52175 -0.0722,4.52177 -4.66685,0.0721 -4.66685,0.0721 -0.19529,8.98985 -0.1953,8.98985 h -4.729 -4.729 v 4.49791 4.49792 h -23.54792 -23.54792 v -4.49792 -4.49791 h 14.15521 14.15521 v -4.49792 -4.49792 H 93.403133 45.910426 v 4.49792 4.49792 h 14.2875 14.2875 v 4.49791 4.49792 H 50.805218 27.125009 Z m 18.785417,-17.99166 v -4.49792 h -9.392708 -9.392709 v 4.49792 4.49791 h 9.392709 9.392708 z m 114.035424,0 v -4.49792 h 4.7625 4.7625 v -4.63021 -4.6302 h 4.7625 4.7625 v -4.49182 -4.49181 l 4.69635,-0.0722 4.69636,-0.0722 0.0724,-4.56406 0.0724,-4.56406 h 4.58153 4.58155 l 0.17471,-6.789798 c 0.22452,-8.72566 0.22419,-32.072479 -5.3e-4,-41.033639 l -0.17427,-6.945313 h -4.58774 -4.58775 v -4.497916 -4.497917 h -4.7625 -4.7625 v 4.497917 4.497916 h 4.7625 4.7625 v 27.384372 27.384378 h -4.7625 -4.7625 v 4.6302 4.63021 h -4.7625 -4.7625 v 4.49792 4.49792 h -4.7625 -4.7625 v 4.6302 4.63021 h -9.39271 -9.39271 v 4.49792 4.49791 h 9.39271 9.39271 z M 17.335426,118.46851 v -4.49181 l -4.696354,-0.0722 -4.6963535,-0.0722 -0.07239,-4.56406 -0.0724,-4.56406 H 3.1739705 -1.4499902 V 77.319702 49.93533 h 4.6302087 4.630208 v -4.497916 -4.497917 h -4.630208 -4.6302087 v 4.497917 4.497916 h -4.7625 -4.7624998 v 27.384372 27.384378 h 4.7624998 4.7625 v 4.6302 4.63021 h 4.7624997 4.7625 v 4.49792 4.49792 h 4.6302085 4.630208 z m 0,-82.291513 V 31.679081 H 12.705218 8.0750095 v 4.497916 4.497917 h 4.6302085 4.630208 z m 161.660424,0 v -4.497916 h -4.7625 -4.7625 v -4.497917 -4.497916 h -4.75625 -4.75625 l -0.0724,-4.564062 -0.0724,-4.564063 -9.32656,-0.06953 -9.32657,-0.06953 v 4.633593 4.633593 h 9.39271 9.39271 v 4.497916 4.497917 h 4.7625 4.7625 v 4.497916 4.497917 h 4.7625 4.7625 z M 26.860426,27.181164 v -4.497916 h -4.630208 -4.630209 v 4.497916 4.497917 h 4.630209 4.630208 z m 19.05,-9.128124 V 13.422831 H 93.403133 140.89585 V 8.9249154 4.4269984 H 93.403133 45.910426 v 4.497917 4.4979156 h -9.392708 -9.392709 v 4.630209 4.630208 h 9.392709 9.392708 z"
                id="path2857"/>
            <path
                style="fill:#0045f9;stroke-width:0.264583"
                d="m 84.010426,190.95824 v -31.75 h 9.524997 9.525007 v 31.75 31.75 H 93.535423 84.010426 Z M -10.97499,168.46866 v -36.5125 h 4.7624998 4.7625 v 4.49791 4.49792 h 4.7624997 4.7625 v 32.01458 32.01459 H -1.4499902 -10.97499 Z m 189.9703,11.44323 c -2.7e-4,-13.7881 -0.0789,-28.19466 -0.17475,-32.01459 l -0.17422,-6.94531 h 4.80496 4.80497 v -4.49792 -4.49791 h 4.7625 4.7625 v 36.5125 36.5125 h -9.39271 -9.39271 l -5.3e-4,-25.06927 z M 64.960426,154.84262 v -4.36563 h 4.7625 4.7625 v 4.36563 4.36562 h -4.7625 -4.7625 z m 47.625004,0 v -4.36563 h 4.63021 4.63021 v 4.36563 4.36562 h -4.63021 -4.63021 z m -94.985421,-9.12813 v -4.49792 h 4.7625 4.7625 v 4.49792 4.49792 h -4.7625 -4.7625 z m 142.345841,0 v -4.49792 h 4.63021 4.63021 v 4.49792 4.49792 h -4.63021 -4.63021 z M 45.910426,136.71866 v -4.49792 h -9.525 -9.525 v -4.63021 -4.6302 h -4.7625 -4.7625 v -4.49182 -4.49181 l -4.696354,-0.0722 -4.6963535,-0.0722 -0.07239,-4.56406 -0.0724,-4.56406 H 3.1739705 -1.4499902 V 77.319702 49.93533 h 4.6239607 4.62396 l 0.0724,-4.564062 0.07239,-4.564062 4.6963535,-0.07225 4.696354,-0.07225 v -4.491809 -4.491813 h 4.7625 4.7625 v -4.497917 -4.497916 h 9.525 9.525 v -4.630208 -4.630209 h 47.624995 47.625007 v 4.630209 4.630208 h 9.39271 9.39271 v 4.497916 4.497917 h 4.7625 4.7625 V 36.177 40.674917 h 4.7625 4.7625 v 4.630208 4.630208 h 4.7625 4.7625 v 27.384369 27.384378 h -4.7625 -4.7625 v 4.6302 4.63021 h -4.7625 -4.7625 v 4.49792 4.49792 h -4.7625 -4.7625 v 4.6302 4.63021 h -9.39271 -9.39271 v 4.49792 4.49791 H 93.535423 45.910428 Z"
                id="path2855"/>
            <path
                style="fill:#0947e9;stroke-width:0.264583"
                d="m 84.010426,190.95824 v -31.75 h 9.524997 9.525007 v 31.75 31.75 H 93.535423 84.010426 Z M -10.97499,168.46866 v -36.5125 h 4.7624998 4.7625 v 4.49791 4.49792 h 4.7624997 4.7625 v 32.01458 32.01459 H -1.4499902 -10.97499 Z m 189.9703,11.44323 c -2.7e-4,-13.7881 -0.0789,-28.19466 -0.17475,-32.01459 l -0.17422,-6.94531 h 4.80496 4.80497 v -4.49792 -4.49791 h 4.7625 4.7625 v 36.5125 36.5125 h -9.39271 -9.39271 l -5.3e-4,-25.06927 z M 45.910426,136.71866 v -4.49792 h -9.525 -9.525 v -4.63021 -4.6302 h -4.7625 -4.7625 v -4.49792 -4.49792 H 12.705218 8.0750095 v -4.63021 -4.6302 h -4.7625 -4.7624997 V 77.319702 49.93533 h 4.7624997 4.7625 v -4.630208 -4.630208 h 4.6302085 4.630208 v -4.497917 -4.497916 h 4.7625 4.7625 v -4.497917 -4.497916 h 9.525 9.525 V 18.052319 13.42139 l 47.558857,0.06687 47.558857,0.06687 0.0724,4.564063 0.0724,4.564062 h 9.38646 9.38646 v 4.497916 4.497917 h 4.7625 4.7625 v 4.491813 4.491809 l 4.69635,0.07225 4.69636,0.07225 0.0724,4.564062 0.0724,4.564062 h 4.75625 4.75625 v 27.384368 27.384378 h -4.7625 -4.7625 v 4.6302 4.63021 h -4.7625 -4.7625 v 4.49792 4.49792 h -4.7625 -4.7625 v 4.6302 4.63021 h -9.39271 -9.39271 v 4.49792 4.49791 H 93.535443 45.910446 Z"
                id="path2853"/>
            <path
                style="fill:#284fb3;stroke-width:0.264583"
                d="m 84.010426,190.95824 v -31.75 h 9.524997 9.525007 v 31.75 31.75 H 93.535423 84.010426 Z M -10.97499,168.46866 v -36.5125 h 4.7624998 4.7625 v 4.49791 4.49792 h 4.7624997 4.7625 v 32.01458 32.01459 H -1.4499902 -10.97499 Z m 189.90827,9.12812 c -0.0344,-15.0614 -0.0642,-29.4382 -0.0661,-31.94843 l -0.004,-4.56407 4.69635,-0.0722 4.69636,-0.0722 v -4.49181 -4.49181 h 4.7625 4.7625 v 36.5125 36.5125 h -9.39271 -9.39271 z M 45.910426,136.722 v -4.49457 l -9.458854,-0.0695 -9.458854,-0.0695 -0.07237,-4.55798 -0.07237,-4.55798 -4.690134,-0.0722 -4.690131,-0.0722 -0.07254,-4.43177 -0.07254,-4.43177 H 12.698822 8.0750115 v -4.63021 -4.6302 h -4.7625 -4.7624997 V 77.319702 49.93533 h 4.7624997 4.7625 v -4.497916 -4.497917 h 4.6239615 4.623959 l 0.0724,-4.564062 0.07239,-4.564062 4.696354,-0.07225 4.696354,-0.07225 v -4.49181 -4.491812 h 9.525 9.525 v -4.630208 -4.630209 h 47.492703 47.492717 v 4.630209 4.630208 h 9.525 9.525 v 4.497916 4.497917 h 4.7625 4.7625 v 4.630208 4.630208 h 4.7625 4.7625 v 4.497917 4.497916 h 4.7625 4.7625 v 27.384369 27.384378 h -4.7625 -4.7625 v 4.6302 4.63021 h -4.7625 -4.7625 v 4.49792 4.49792 h -4.7625 -4.7625 v 4.6302 4.63021 h -9.525 -9.525 v 4.49792 4.49791 H 93.403133 45.910426 Z"
                id="path2851"/>
            <path
                style="fill:#0e43cb;stroke-width:0.264583"
                d="m 84.010426,190.9549 v -31.75334 l 9.458857,0.0695 9.458857,0.0695 0.0672,31.68386 0.0672,31.68385 H 93.536453 84.010386 Z M -10.97499,168.46866 v -36.5125 h 4.7624998 4.7625 v 4.63021 4.6302 h 4.7624997 4.7625 v 31.8823 31.88229 H -1.4499902 -10.97499 Z m 189.97084,11.42 c 0,-13.80087 -0.0786,-28.14791 -0.17471,-31.88229 l -0.17471,-6.7898 h 4.80492 4.80492 v -4.6302 -4.63021 h 4.7625 4.7625 v 36.5125 36.5125 h -9.39271 -9.39271 z M 45.910426,136.722 v -4.49457 l -9.458854,-0.0695 -9.458854,-0.0695 -0.07237,-4.55798 -0.07237,-4.55798 -4.690134,-0.0722 -4.690131,-0.0722 -0.07254,-4.43177 -0.07254,-4.43177 H 12.698822 8.0750115 v -4.63021 -4.6302 h -4.7625 -4.7624997 V 77.319702 49.93533 h 4.7624997 4.7625 v -4.497916 -4.497917 h 4.6239615 4.623959 l 0.0724,-4.564062 0.07239,-4.564062 4.696354,-0.07225 4.696354,-0.07225 v -4.49181 -4.491812 h 9.525 9.525 v -4.630208 -4.630209 h 47.492703 47.492717 v 4.630209 4.630208 h 9.525 9.525 v 4.497916 4.497917 h 4.7625 4.7625 v 4.630208 4.630208 h 4.7625 4.7625 v 4.497917 4.497916 h 4.7625 4.7625 v 27.384369 27.384378 h -4.7625 -4.7625 v 4.6302 4.63021 h -4.7625 -4.7625 v 4.49792 4.49792 h -4.7625 -4.7625 v 4.6302 4.63021 h -9.525 -9.525 v 4.49792 4.49791 H 93.403133 45.910426 Z"
                id="path2849"/>
            <path
                style="fill:#585858;stroke-width:0.264583"
                d="m 84.010426,190.9549 v -31.75334 l 9.458857,0.0695 9.458857,0.0695 0.0672,31.68386 0.0672,31.68385 H 93.536453 84.010386 Z M -10.97499,168.46866 v -36.5125 h 4.7624998 4.7625 v 4.63021 4.6302 h 4.7624997 4.7625 v 31.8823 31.88229 H -1.4499902 -10.97499 Z m 189.97084,11.42 c 0,-13.80087 -0.0786,-28.14791 -0.17471,-31.88229 l -0.17471,-6.7898 h 4.80492 4.80492 v -4.6302 -4.63021 h 4.7625 4.7625 v 36.5125 36.5125 h -9.39271 -9.39271 z M 45.910426,136.58637 v -4.63021 h -9.525 -9.525 v -4.49792 -4.49791 h -4.630208 -4.630209 v -4.49792 -4.49792 h -4.7625 -4.7624995 v -4.63021 -4.6302 h -4.7625 -4.7624997 V 77.319702 49.93533 h 4.7624997 4.7625 v -4.497916 -4.497917 h 4.7624995 4.7625 v -4.630208 -4.630208 h 4.623811 4.623811 l 0.07254,-4.431771 0.07254,-4.43177 9.45262,-0.06948 9.452621,-0.06948 0.07238,-4.560728 0.07238,-4.560727 47.426561,-0.06687 47.426567,-0.06687 v 4.630931 4.630931 h 9.525 9.525 v 4.497916 4.497917 h 4.7625 4.7625 v 4.630208 4.630208 h 4.7625 4.7625 v 4.491813 4.49181 l 4.69635,0.07225 4.69636,0.07225 0.0674,27.318233 0.0674,27.318228 h -4.75749 -4.75748 l -0.0724,4.56406 -0.0724,4.56406 -4.69636,0.0722 -4.69635,0.0722 v 4.49181 4.49182 h -4.7625 -4.7625 v 4.49457 4.49457 l -9.45885,0.0695 -9.45886,0.0695 -0.0724,4.56406 -0.0724,4.56406 H 93.396883 45.910426 Z"
                id="path2847"/>
            <path
                style="fill:#1340b2;stroke-width:0.264583"
                d="m 84.010426,190.95824 v -31.75 h 9.392707 9.392717 v 31.75 31.75 h -9.392717 -9.392707 z m -94.809027,13.84653 c -0.09701,-0.097 -0.176389,-16.52764 -0.176389,-36.5125 v -36.33611 h 4.7624998 4.7625 v 4.63021 4.6302 h 4.7624997 4.7625 v 31.8823 31.88229 h -9.3486107 c -5.1417363,0 -9.4279868,-0.0794 -9.5249998,-0.17639 z M 178.99585,179.88866 c 0,-13.80087 -0.0786,-28.14791 -0.17471,-31.88229 l -0.17471,-6.7898 h 4.80492 4.80492 v -4.6302 -4.63021 h 4.7625 4.7625 v 36.5125 36.5125 h -9.39271 -9.39271 z M 45.910426,136.58637 v -4.63021 h -9.525 -9.525 v -4.49792 -4.49791 h -4.630208 -4.630209 v -4.49792 -4.49792 h -4.7625 -4.7624995 v -4.63021 -4.6302 h -4.7625 -4.7624997 V 77.319702 49.93533 h 4.7624997 4.7625 v -4.497916 -4.497917 h 4.7624995 4.7625 v -4.630208 -4.630208 h 4.623811 4.623811 l 0.07254,-4.431771 0.07254,-4.43177 9.45262,-0.06948 9.452621,-0.06948 0.07238,-4.560728 0.07238,-4.560727 47.426561,-0.06687 47.426567,-0.06687 v 4.630931 4.630931 h 9.525 9.525 v 4.497916 4.497917 h 4.7625 4.7625 v 4.630208 4.630208 h 4.7625 4.7625 v 4.491813 4.49181 l 4.69635,0.07225 4.69636,0.07225 0.0674,27.318233 0.0674,27.318228 h -4.75749 -4.75748 l -0.0724,4.56406 -0.0724,4.56406 -4.69636,0.0722 -4.69635,0.0722 v 4.49181 4.49182 h -4.7625 -4.7625 v 4.49457 4.49457 l -9.45885,0.0695 -9.45886,0.0695 -0.0724,4.56406 -0.0724,4.56406 H 93.396883 45.910426 Z"
                id="path2845"/>
            <path
                style="fill:#133eab;stroke-width:0.264583"
                d="m 84.010426,190.95824 v -31.75 h 9.392707 9.392717 v 31.75 31.75 h -9.392717 -9.392707 z m -94.809027,13.84653 c -0.09701,-0.097 -0.176389,-16.52764 -0.176389,-36.5125 v -36.33611 h 4.7624998 4.7625 v 4.63021 4.6302 h 4.7624997 4.7625 v 31.8823 31.88229 h -9.3486107 c -5.1417363,0 -9.4279868,-0.0794 -9.5249998,-0.17639 z M 178.99585,179.88866 c 0,-13.80087 -0.0786,-28.14791 -0.17471,-31.88229 l -0.17471,-6.7898 h 4.80492 4.80492 v -4.6302 -4.63021 h 4.7625 4.7625 v 36.5125 36.5125 h -9.39271 -9.39271 z M 45.910426,136.58637 v -4.63021 h -9.392708 -9.392709 v -4.49792 -4.49791 h -4.7625 -4.7625 v -4.49792 -4.49792 h -4.7625 -4.7624995 v -4.63021 -4.6302 h -4.7625 -4.7624997 V 77.319702 49.93533 h 4.7624997 4.7625 v -4.497916 -4.497917 h 4.7624995 4.7625 v -4.630208 -4.630208 h 4.7625 4.7625 v -4.497917 -4.497916 h 9.392709 9.392708 v -4.497917 -4.497916 h 47.492707 47.492717 v 4.497916 4.497917 h 9.525 9.525 v 4.491812 4.49181 l 4.69635,0.07225 4.69636,0.07225 0.0724,4.564062 0.0724,4.564062 h 4.75625 4.75625 v 4.491813 4.49181 l 4.69635,0.07225 4.69636,0.07225 0.0674,27.318225 0.0674,27.318228 h -4.75749 -4.75748 l -0.0724,4.56406 -0.0724,4.56406 -4.69636,0.0722 -4.69635,0.0722 v 4.49181 4.49182 h -4.7625 -4.7625 v 4.49791 4.49792 h -9.525 -9.525 v 4.63021 4.6302 H 93.403133 45.910426 Z"
                id="path2843"/>
            <path
                style="fill:#173b95;stroke-width:0.264583"
                d="m 84.010426,190.95824 v -31.75 h 9.392707 9.392717 v 31.75 31.75 h -9.392717 -9.392707 z m -94.809027,13.84653 c -0.09701,-0.097 -0.176389,-16.52764 -0.176389,-36.5125 v -36.33611 h 4.7624998 4.7625 v 4.63021 4.6302 h 4.7624997 4.7625 v 31.8823 31.88229 h -9.3486107 c -5.1417363,0 -9.4279868,-0.0794 -9.5249998,-0.17639 z M 178.99585,179.88866 c 0,-13.80087 -0.0786,-28.14791 -0.17471,-31.88229 l -0.17471,-6.7898 h 4.80492 4.80492 v -4.6302 -4.63021 h 4.7625 4.7625 v 36.5125 36.5125 h -9.39271 -9.39271 z M 46.086816,141.04018 c -0.09702,-0.097 -0.17639,-2.1806 -0.17639,-4.6302 v -4.45382 h -9.392708 -9.392709 v -4.49792 -4.49791 h -4.756253 -4.75625 l -0.0724,-4.56407 -0.07239,-4.56406 -4.696355,-0.0722 -4.6963535,-0.0723 v -4.49181 -4.49181 h -4.7625 -4.7624997 V 77.319702 49.93533 h 4.7624997 4.7625 v -4.497916 -4.497917 h 4.7624995 4.7625 v -4.630208 -4.630208 h 4.7625 4.7625 v -4.497917 -4.497916 h 9.392709 9.392708 v -4.497917 -4.497916 h 47.492709 47.492717 v 4.497916 4.497917 h 9.525 9.525 v 4.491812 4.49181 l 4.69635,0.07225 4.69636,0.07225 0.0724,4.564062 0.0724,4.564062 h 4.75625 4.75625 v 4.491813 4.49181 l 4.69635,0.07225 4.69636,0.07225 0.0674,27.318225 0.0674,27.318228 h -4.76373 -4.76374 v 4.49791 4.49792 h -4.7625 -4.7625 v 4.63021 4.63021 h -4.7625 -4.7625 v 4.49791 4.49792 h -9.525 -9.525 v 4.63021 4.6302 H 93.579573 c -26.023978,0 -47.395697,-0.0794 -47.492709,-0.17639 z"
                id="path2841"/>
            <path
                style="fill:#1d3675;stroke-width:0.264583"
                d="m 84.010426,191.09053 v -31.61771 h 9.392707 9.392717 v 31.61771 31.61771 h -9.392717 -9.392707 z m -94.809027,13.71424 c -0.09701,-0.097 -0.176389,-16.52764 -0.176389,-36.5125 v -36.33611 h 4.7624998 4.7625 v 4.63021 4.6302 h 4.7624997 4.7625 v 31.8823 31.88229 h -9.3486107 c -5.1417363,0 -9.4279868,-0.0794 -9.5249998,-0.17639 z m 189.794451,-31.7059 v -31.8823 h 4.62396 4.62396 l 0.0724,-4.56406 0.0724,-4.56406 4.69635,-0.0722 4.69636,-0.0722 v 36.5186 36.51861 h -9.39271 -9.39271 z m -132.88074,-36.44636 -0.07239,-4.56406 -9.458855,-0.0695 -9.458854,-0.0695 v -4.49457 -4.49457 h -4.7625 -4.7625 v -4.63021 -4.63021 h -4.7625 -4.7624995 v -4.49792 -4.49791 h -4.7625 -4.7624997 V 77.319702 49.93533 h 4.7624997 4.7625 v -4.497916 -4.497917 h 4.7624995 4.7625 v -4.491812 -4.49181 l 4.696354,-0.07225 4.696355,-0.07225 0.07239,-4.564063 0.0724,-4.564062 h 9.51875 9.518753 v -4.497917 -4.497916 h 47.36041 47.360427 v 4.497916 4.497917 h 9.525 9.525 v 4.630208 4.630208 h 4.7625 4.7625 v 4.497917 4.497916 h 4.7625 4.7625 v 4.497917 4.497916 h 4.63021 4.63021 v 27.38437 27.384378 h -4.63021 -4.63021 v 4.49791 4.49792 h -4.7625 -4.7625 v 4.63021 4.63021 h -4.7625 -4.7625 v 4.49791 4.49792 h -9.525 -9.525 v 4.63021 4.6302 H 93.541673 46.187506 Z"
                id="path2839"/>
            <path
                style="fill:#223669;stroke-width:0.264583"
                d="m 84.010426,191.09053 v -31.61771 h 9.392707 9.392717 v 31.61771 31.61771 h -9.392717 -9.392707 z m -94.809027,13.71424 c -0.09701,-0.097 -0.176389,-16.52764 -0.176389,-36.5125 v -36.33611 h 4.7624998 4.7625 v 4.63021 4.6302 h 4.7624997 4.7625 v 31.8823 31.88229 h -9.3486107 c -5.1417363,0 -9.4279868,-0.0794 -9.5249998,-0.17639 z m 189.794451,-31.6998 v -31.87618 l 4.69635,-0.0723 4.69636,-0.0723 0.0724,-4.56406 0.0724,-4.56406 h 4.62395 4.62397 v 36.5125 36.5125 h -9.39271 -9.39271 z m -132.88074,-36.45246 -0.07239,-4.56406 -9.458855,-0.0695 -9.458854,-0.0695 v -4.49457 -4.49457 h -4.7625 -4.7625 v -4.63021 -4.63021 h -4.7625 -4.7624995 v -4.49792 -4.49791 h -4.7625 -4.7624997 V 77.451992 50.199914 h 4.7624997 4.7625 v -4.630208 -4.630209 h 4.7624995 4.7625 v -4.497916 -4.497917 h 4.7625 4.7625 v -4.630208 -4.630208 h 9.525 9.525 v -4.497917 -4.497916 h 47.360412 47.360427 v 4.497916 4.497917 h 9.525 9.525 v 4.630208 4.630208 h 4.7625 4.7625 v 4.497917 4.497916 h 4.62396 4.62396 l 0.0724,4.564063 0.0724,4.564062 4.69635,0.07225 4.69636,0.07225 v 27.24598 27.245978 h -4.7625 -4.7625 v 4.49791 4.49792 h -4.62397 -4.62395 l -0.0724,4.56406 -0.0724,4.56406 -4.69636,0.0722 -4.69635,0.0723 v 4.49181 4.49181 h -9.525 -9.525 v 4.63021 4.6302 H 93.541673 46.187506 Z"
                id="path2837"/>
            <path
                style="fill:#3c3c3c;stroke-width:0.264583"
                d="m 84.010426,191.09053 v -31.61771 h 9.392707 9.392717 v 31.61771 31.61771 h -9.392717 -9.392707 z m -94.863298,13.5599 c -0.06922,-0.1819 -0.09525,-16.58276 -0.05784,-36.44636 l 0.06802,-36.11562 4.6963539,-0.0722 4.6963541,-0.0722 v 4.63631 4.63631 h 4.7624995 4.7625 v 31.8823 31.88229 h -9.4010119 c -7.2772969,0 -9.4294436,-0.0747 -9.5268696,-0.33073 z M 178.99585,173.10497 v -31.87618 l 4.69635,-0.0723 4.69636,-0.0723 0.0724,-4.56406 0.0724,-4.56406 h 4.62395 4.62397 v 36.5125 36.5125 h -9.39271 -9.39271 z M 46.175009,136.45407 v -4.49791 h -9.525 -9.525 v -4.49792 -4.49791 h -4.7625 -4.7625 v -4.63021 -4.63021 h -4.7625 -4.7624995 v -4.49792 -4.49791 h -4.7625 -4.7624997 V 77.451992 50.199914 h 4.7624997 4.7625 v -4.630208 -4.630209 h 4.7624995 4.7625 v -4.497916 -4.497917 h 4.7625 4.7625 v -4.630208 -4.630208 h 9.525 9.525 v -4.497917 -4.497916 h 47.360414 47.360427 v 4.497916 4.497917 h 9.525 9.525 v 4.630208 4.630208 h 4.63021 4.63021 v 4.497917 4.497916 h 4.75625 4.75625 l 0.0724,4.564063 0.0724,4.564062 4.69635,0.07225 4.69636,0.07225 v 27.24598 27.245978 h -4.7625 -4.7625 v 4.49181 4.49181 l -4.69636,0.0723 -4.69635,0.0722 -0.0724,4.56406 -0.0724,4.56407 h -4.62396 -4.62396 v 4.49791 4.49792 h -9.525 -9.525 v 4.49791 4.49792 H 93.535423 46.175009 Z"
                id="path2835"/>
            <path
                style="fill:#3b3b3b;stroke-width:0.264583"
                d="m 84.010426,191.09053 v -31.61771 h 9.392707 9.392717 v 31.61771 31.61771 h -9.392717 -9.392707 z m -94.920209,-22.68802 0.06708,-36.31406 4.6963547,-0.0722 4.6963541,-0.0722 v 4.63631 4.63631 h 4.7624997 4.7625 v 31.75 31.75 H -1.4509324 -10.97687 Z m 189.905633,4.57017 v -31.74389 l 4.69635,-0.0723 4.69636,-0.0723 0.0724,-4.56406 0.0724,-4.56406 h 4.62395 4.62397 v 36.38021 36.3802 h -9.39271 -9.39271 z M 46.175009,136.45407 v -4.49791 h -9.525 -9.525 v -4.49792 -4.49791 h -4.7625 -4.7625 v -4.63021 -4.63021 h -4.7625 -4.7624995 v -4.49792 -4.49791 h -4.7625 -4.7624997 V 77.451992 50.199914 h 4.7624997 4.7625 v -4.630208 -4.630209 h 4.7624995 4.7625 v -4.497916 -4.497917 h 4.7625 4.7625 v -4.630208 -4.630208 h 9.525 9.525 v -4.497917 -4.497916 h 47.360414 47.360427 v 4.497916 4.497917 h 9.525 9.525 v 4.630208 4.630208 h 4.63021 4.63021 v 4.497917 4.497916 h 4.75625 4.75625 l 0.0724,4.564063 0.0724,4.564062 4.69635,0.07225 4.69636,0.07225 v 27.24598 27.245978 h -4.7625 -4.7625 v 4.49181 4.49181 l -4.69636,0.0723 -4.69635,0.0722 -0.0724,4.56406 -0.0724,4.56407 h -4.62396 -4.62396 v 4.49791 4.49792 h -9.525 -9.525 v 4.49791 4.49792 H 93.535423 46.175009 Z m 18.785417,-8.99583 v -4.49791 h -4.7625 -4.7625 v 4.49791 4.49792 h 4.7625 4.7625 z m 66.410424,0 v -4.49791 h -4.7625 -4.7625 v 4.49791 4.49792 h 4.7625 4.7625 z M 17.54011,91.011892 l 0.0724,-4.56406 H 12.84376 8.0750135 v 4.63631 4.63631 l 4.6963535,-0.0722 4.696355,-0.0723 z m 161.19116,0.0661 v -4.6302 h -4.63021 -4.63021 v 4.6302 4.63021 h 4.63021 4.63021 z M 17.600009,63.693663 v -4.497916 h -4.7625 -4.7624995 v 4.497916 4.49792 h 4.7624995 4.7625 z m 161.131261,0 v -4.497916 h -4.63021 -4.63021 v 4.497916 4.49792 h 4.63021 4.63021 z M 64.960426,27.313456 v -4.365625 h -4.7625 -4.7625 v 4.365625 4.365625 h 4.7625 4.7625 z m 66.410424,0 v -4.365625 h -4.7625 -4.7625 v 4.365625 4.365625 h 4.7625 4.7625 z"
                id="path2833"/>
            <path
                style="fill:#3a3a3a;stroke-width:0.264583"
                d="m 84.010426,191.09053 v -31.61771 h 9.392707 9.392717 v 31.61771 31.61771 h -9.392717 -9.392707 z m -94.920209,-22.68802 0.06708,-36.31406 4.6963547,-0.0722 4.6963541,-0.0722 v 4.63631 4.63631 h 4.7624997 4.7625 v 31.75 31.75 H -1.4509324 -10.97687 Z m 189.905633,4.57017 v -31.74389 l 4.69635,-0.0723 4.69636,-0.0723 0.0724,-4.56406 0.0724,-4.56406 h 4.62395 4.62397 v 36.38021 36.3802 h -9.39271 -9.39271 z M 46.175009,136.45407 v -4.49791 h -9.525 -9.525 v -4.49792 -4.49791 h -4.7625 -4.7625 v -4.63021 -4.63021 h -4.7625 -4.7624995 v -4.49792 -4.49791 h -4.7625 -4.7624997 V 77.451992 50.199914 h 4.7624997 4.7625 v -4.630208 -4.630209 h 4.7624995 4.7625 v -4.497916 -4.497917 h 4.7625 4.7625 v -4.630208 -4.630208 h 9.525 9.525 v -4.497917 -4.497916 h 47.360414 47.360427 v 4.497916 4.497917 h 9.525 9.525 v 4.630208 4.630208 h 4.63021 4.63021 v 4.497917 4.497916 h 4.75625 4.75625 l 0.0724,4.564063 0.0724,4.564062 4.69635,0.07225 4.69636,0.07225 v 27.24598 27.245978 h -4.7625 -4.7625 v 4.49181 4.49181 l -4.69636,0.0723 -4.69635,0.0722 -0.0724,4.56406 -0.0724,4.56407 h -4.62396 -4.62396 v 4.49791 4.49792 h -9.525 -9.525 v 4.49791 4.49792 H 93.535423 46.175009 Z m 94.720841,-8.99583 v -4.49791 H 93.535423 46.175009 v 4.49791 4.49792 h 47.360414 47.360427 z m -94.985424,-9.26041 v -4.49792 h -9.392708 -9.392709 v -4.49792 -4.49791 h -4.7625 -4.7625 v 4.49791 4.49792 h 4.7625 4.7625 v 4.49792 4.49791 h 9.392709 9.392708 z m 113.770844,0 v -4.49792 h -9.39271 -9.39271 v 4.49792 4.49791 h 9.39271 9.39271 z m 9.525,-8.99584 v -4.49791 h -4.63021 -4.63021 v 4.49791 4.49792 h 4.63021 4.63021 z M 17.535104,77.385852 17.602494,50.199914 H 12.83875 8.0750095 v 27.258188 27.258188 l 4.6963535,-0.0723 4.696355,-0.0722 z m 161.196166,0.0661 V 50.199914 h -4.58836 -4.58836 l -0.1202,7.077604 c -0.11052,6.508215 -0.11555,31.581514 -0.009,42.730202 l 0.0451,4.69636 h 4.63021 4.63021 z M 27.125009,45.437414 v -4.497917 h 9.392709 9.392708 v -4.497916 -4.497917 h -9.392708 -9.392709 v 4.497917 4.497916 h -4.7625 -4.7625 v 4.497917 4.497916 h 4.7625 4.7625 z m 142.081261,0 v -4.497917 h -4.63021 -4.63021 v 4.497917 4.497916 h 4.63021 4.63021 z m -9.525,-8.995833 v -4.497917 h -9.39271 -9.39271 v 4.497917 4.497916 h 9.39271 9.39271 z m -23.34948,-4.745458 4.56406,-0.01704 v -4.365625 -4.365625 l -4.7625,-0.01677 c -2.61938,-0.0092 -21.84797,-0.01675 -42.730217,-0.01675 -20.882238,0 -40.051301,0.0075 -42.597915,0.01675 l -4.630209,0.01677 v 4.359521 4.359518 l 4.696354,0.07225 c 3.782031,0.05818 66.862587,0.02643 85.460427,-0.043 z"
                id="path2831"/>
            <path
                style="fill:#283045;stroke-width:0.264583"
                d="m 84.010426,191.09053 v -31.61771 h 9.392707 9.392717 v 31.61771 31.61771 h -9.392717 -9.392707 z m -94.920209,-22.68802 0.06708,-36.31406 4.6963547,-0.0722 4.6963541,-0.0722 v 4.63631 4.63631 h 4.7624997 4.7625 v 31.75 31.75 H -1.4509324 -10.97687 Z m 189.905633,4.57017 v -31.74389 l 4.69635,-0.0723 4.69636,-0.0723 0.0724,-4.56406 0.0724,-4.56406 h 4.62395 4.62397 v 36.38021 36.3802 h -9.39271 -9.39271 z M 46.175009,136.45407 v -4.49791 h 47.360414 47.360427 v -4.49792 -4.49791 h 9.525 9.525 v -4.63021 -4.63021 h 4.7625 4.7625 v -4.49792 -4.49791 h 4.63021 4.63021 l 0.0451,-4.69636 c 0.10699,-11.148688 0.10196,-36.221987 -0.009,-42.730202 l -0.12019,-7.077604 h -4.58836 -4.58836 v -4.630208 -4.630209 h 4.62396 4.62396 l 0.0724,4.564063 0.0724,4.564062 4.69635,0.07225 4.69636,0.07225 v 27.24598 27.245978 h -4.7625 -4.7625 v 4.49181 4.49181 l -4.69636,0.0723 -4.69635,0.0722 -0.0724,4.56406 -0.0724,4.56407 h -4.62396 -4.62396 v 4.49791 4.49792 h -9.525 -9.525 v 4.49791 4.49792 H 93.535423 46.175009 Z m -19.05,-8.99583 v -4.49791 h -4.7625 -4.7625 v -4.63021 -4.63021 h -4.7625 -4.7624995 v -4.49792 -4.49791 h -4.7625 -4.7624997 V 77.451992 50.199914 h 4.7624997 4.7625 v -4.630208 -4.630209 h 4.7624995 4.7625 v -4.497916 -4.497917 h 4.7625 4.7625 v -4.630208 -4.630208 h 9.392709 9.392708 v 4.467151 4.46715 l -9.392708,0.195673 -9.392709,0.195673 v 4.465301 4.465301 h -4.7625 -4.7625 v 4.630209 4.630208 h -4.7625 -4.7624995 v 27.252078 27.252088 h 4.7624995 4.7625 v 4.49791 4.49792 h 4.7625 4.7625 v 4.63021 4.63021 h 9.392709 9.392708 v 4.49791 4.49792 H 36.517718 27.125009 Z M 159.94585,36.47331 v -4.466188 l -9.525,-0.195749 -9.525,-0.19575 V 27.149436 22.683248 H 93.535423 46.175009 v -4.497917 -4.497916 h 47.360414 47.360427 v 4.497916 4.497917 h 9.525 9.525 v 4.630208 4.630208 h 4.63021 4.63021 v 4.497917 4.497916 h -4.63021 -4.63021 z"
                id="path2829"/>
            <path
                style="fill:#323232;stroke-width:0.264583"
                d="m 84.010426,191.09053 v -31.61771 h 9.392707 9.392717 v 31.61771 31.61771 h -9.392717 -9.392707 z m -94.920209,-22.68802 0.06708,-36.31406 4.6963547,-0.0722 4.6963541,-0.0722 v 4.63631 4.63631 h 4.7624997 4.7625 v 31.75 31.75 H -1.4509324 -10.97687 Z m 189.905633,4.57017 v -31.74389 l 4.69635,-0.0723 4.69636,-0.0723 0.0724,-4.56406 0.0724,-4.56406 h 4.62395 4.62397 v 36.38021 36.3802 h -9.39271 -9.39271 z M 46.175009,136.45407 v -4.49791 h 47.360414 47.360427 v -4.49792 -4.49791 h 9.39271 9.39271 v 4.49791 4.49792 h -9.39271 -9.39271 v 4.49791 4.49792 H 93.535423 46.175009 Z m -19.05,-8.99583 v -4.49791 h 9.392709 9.392708 v 4.49791 4.49792 h -9.392708 -9.392709 z m -9.525,-9.26041 v -4.49792 h -4.7625 -4.7624995 v -4.49181 -4.49181 l -4.672863,-0.0723 -4.6728629,-0.0722 -0.023491,-27.185928 -0.023491,-27.185941 4.6963539,3e-6 h 4.696354 v -4.630208 -4.630209 h 4.7624995 4.7625 v -4.497916 -4.497917 h 4.7625 4.7625 v -4.630208 -4.630208 l 2.447396,5.29e-4 c 1.346068,2.65e-4 5.572787,0.07894 9.392709,0.174752 l 6.945312,0.174212 v 4.292399 4.292396 l -9.392708,0.195673 -9.392709,0.195672 v 4.465302 4.465301 h -4.7625 -4.7625 v 4.630208 4.630209 h -4.7625 -4.7624995 v 27.252081 27.252078 h 4.7624995 4.7625 v 4.49792 4.49792 h 4.7625 4.7625 v 4.49791 4.49792 h -4.7625 -4.7625 v -4.49792 z m 142.345841,0 v -4.49792 h 4.63021 4.63021 v 4.49792 4.49791 h -4.63021 -4.63021 z m 9.525,-8.99584 v -4.49791 h 4.63021 4.63021 l 0.0451,-4.69636 c 0.10699,-11.148688 0.10196,-36.221987 -0.009,-42.730202 l -0.12019,-7.077604 h -4.58836 -4.58836 v -4.630208 -4.630209 h 4.63021 4.63021 v 4.630209 4.630208 h 4.7625 4.7625 v 27.252078 27.252088 h -4.7625 -4.7625 v 4.49791 4.49792 h -4.63021 -4.63021 z m -9.525,-72.760409 v -4.497917 h 4.63021 4.63021 v 4.497917 4.497916 h -4.63021 -4.63021 z M 145.7245,31.74561 140.89585,31.66714 V 27.175195 22.683248 H 93.535423 46.175009 v -4.497917 -4.497916 h 47.354174 47.354167 l 0.0724,4.564062 0.0724,4.564063 9.32656,-0.09361 9.32657,-0.09362 v 4.657678 4.657674 l -4.56407,-0.05979 c -2.51023,-0.03289 -6.73695,-0.0951 -9.3927,-0.138261 z"
                id="path2827"/>
            <path
                style="fill:#292d37;stroke-width:0.264583"
                d="m 84.010426,191.09053 v -31.61771 h 9.392707 9.392717 v 31.61771 31.61771 h -9.392717 -9.392707 z m -94.720833,-22.75416 v -36.38021 h 4.6302085 4.6302083 v 4.63021 4.6302 h 4.7624997 4.7625 v 31.75 31.75 h -9.392708 -9.3927085 z m 189.706257,4.63631 v -31.74389 l 4.69635,-0.0723 4.69636,-0.0723 0.0724,-4.56406 0.0724,-4.56406 h 4.62395 4.62397 v 36.38021 36.3802 h -9.39271 -9.39271 z M 46.175012,136.52022 v -4.43177 h 47.360421 47.360417 v 4.43177 4.43177 H 93.535423 46.175009 Z m -19.050003,-9.06198 v -4.49791 h 4.7625 4.7625 v 4.49791 4.49792 h -4.7625 -4.7625 z m 123.295841,0 v -4.49791 h 4.63021 4.63021 v 4.49791 4.49792 h -4.63021 -4.63021 z M 17.600009,118.33012 v -4.36563 h 4.630209 4.630208 v 4.36563 4.36562 h -4.630208 -4.630209 z m 142.345841,0 v -4.36563 h 4.63021 4.63021 v 4.36563 4.36562 h -4.63021 -4.63021 z M 8.0750095,109.2081 v -4.49181 l -4.672863,-0.0723 -4.6728629,-0.0722 -0.023491,-27.185928 -0.023491,-27.185941 4.6963539,3e-6 h 4.696354 v 27.252078 27.252088 h 4.7624995 4.7625 v 4.49791 4.49792 h -4.7625 -4.7624995 z m 161.3958405,-0.006 v -4.49791 h 4.63021 4.63021 v 4.49791 4.49792 h -4.63021 -4.63021 z m 9.525,-31.749998 V 50.199914 h 4.63021 4.63021 v 27.252078 27.252088 h -4.63021 -4.63021 z M 8.0750095,45.437414 v -4.497917 h 4.7624995 4.7625 v -4.497916 -4.497917 h 4.630209 4.630208 v 4.497917 4.497916 h -4.630208 -4.630209 v 4.497917 4.497916 h -4.7625 -4.7624995 z m 161.3958405,0 v -4.497917 h 4.63021 4.63021 v 4.497917 4.497916 h -4.63021 -4.63021 z m -9.525,-8.995833 v -4.497917 h 4.63021 4.63021 v 4.497917 4.497916 h -4.63021 -4.63021 z M 27.125009,27.181164 v -4.497916 h 4.7625 4.7625 v 4.497916 4.497917 h -4.7625 -4.7625 z m 123.295841,0 v -4.497916 h 4.63021 4.63021 v 4.497916 4.497917 h -4.63021 -4.63021 z M 46.175009,18.185331 v -4.497916 h 47.360414 47.360427 v 4.497916 4.497917 H 93.535423 46.175009 Z"
                id="path2825"/>
            <path
                style="fill:#2e2e2e;stroke-width:0.264583"
                d="m 84.010426,191.09053 v -31.61771 h 9.392707 9.392717 v 31.61771 31.61771 h -9.392717 -9.392707 z m -94.720833,-22.75416 v -36.38021 h 4.6302085 4.6302083 v 4.63021 4.6302 h 4.7624997 4.7625 v 31.75 31.75 h -9.392708 -9.3927085 z m 189.706257,4.63631 v -31.74389 l 4.69635,-0.0723 4.69636,-0.0723 0.0724,-4.56406 0.0724,-4.56406 h 4.62395 4.62397 v 36.38021 36.3802 h -9.39271 -9.39271 z M 46.175012,136.52022 v -4.43177 h 47.360421 47.360417 v 4.43177 4.43177 H 93.535423 46.175009 Z m -19.050003,-9.06198 v -4.49791 h 4.7625 4.7625 v 4.49791 4.49792 h -4.7625 -4.7625 z m 123.295841,0 v -4.49791 h 4.63021 4.63021 v 4.49791 4.49792 h -4.63021 -4.63021 z M 17.600009,118.33012 v -4.36563 h 4.630209 4.630208 v 4.36563 4.36562 h -4.630208 -4.630209 z m 142.345841,0 v -4.36563 h 4.63021 4.63021 v 4.36563 4.36562 h -4.63021 -4.63021 z M 8.0750095,109.20199 v -4.49791 H 3.4448015 -1.1854068 V 77.451992 50.199914 h 4.6302083 4.630208 v 27.252078 27.252088 h 4.7624995 4.7625 v 4.49791 4.49792 h -4.7625 -4.7624995 z m 161.3958405,0 v -4.49791 h 4.63021 4.63021 v 4.49791 4.49792 h -4.63021 -4.63021 z m 9.525,-31.749998 V 50.199914 h 4.63021 4.63021 v 27.252078 27.252088 h -4.63021 -4.63021 z M 8.0750095,45.437414 v -4.497917 h 4.7624995 4.7625 v -4.497916 -4.497917 h 4.630209 4.630208 v 4.497917 4.497916 h -4.630208 -4.630209 v 4.497917 4.497916 h -4.7625 -4.7624995 z m 161.3958405,0 v -4.497917 h 4.63021 4.63021 v 4.497917 4.497916 h -4.63021 -4.63021 z m -9.525,-8.995833 v -4.497917 h 4.63021 4.63021 v 4.497917 4.497916 h -4.63021 -4.63021 z M 27.125009,27.313456 v -4.365625 h 4.7625 4.7625 v 4.365625 4.365625 h -4.7625 -4.7625 z m 123.295841,0 v -4.365625 h 4.63021 4.63021 v 4.365625 4.365625 h -4.63021 -4.63021 z M 46.175009,18.185331 v -4.497916 h 47.360414 47.360427 v 4.497916 4.497917 H 93.535423 46.175009 Z"
                id="path2823"/>
            <path
                style="fill:#2c2c2c;stroke-width:0.264583"
                d="m 84.010426,191.09053 v -31.61771 h 9.392707 9.392717 v 31.61771 31.61771 h -9.392717 -9.392707 z m -94.720833,-22.75416 v -36.38021 h 4.6302085 4.6302083 v 4.63021 4.6302 h 4.7624997 4.7625 v 31.75 31.75 h -9.392708 -9.3927085 z m 189.706257,4.63631 v -31.74389 l 4.69635,-0.0723 4.69636,-0.0723 0.0724,-4.56406 0.0724,-4.56406 h 4.62395 4.62397 v 36.38021 36.3802 h -9.39271 -9.39271 z M 46.175009,136.58637 v -4.36563 h 4.630209 4.630208 v 4.36563 4.36562 h -4.630208 -4.630209 z m 85.195841,0 v -4.36563 h 4.7625 4.7625 v 4.36563 4.36562 h -4.7625 -4.7625 z M 27.125009,127.45824 v -4.49791 h 4.630209 4.630208 v 4.49791 4.49792 h -4.630208 -4.630209 z m 123.295841,0 v -4.49791 h 4.63021 4.63021 v 4.49791 4.49792 h -4.63021 -4.63021 z M 17.600009,118.33012 v -4.36563 h 4.630209 4.630208 v 4.36563 4.36562 h -4.630208 -4.630209 z m 142.345841,0 v -4.36563 h 4.63021 4.63021 v 4.36563 4.36562 h -4.63021 -4.63021 z M 8.0750095,109.20199 v -4.49791 h 4.6302085 4.630208 v 4.49791 4.49792 H 12.705218 8.0750095 Z m 161.3958405,0 v -4.49791 h 4.63021 4.63021 v 4.49791 4.49792 h -4.63021 -4.63021 z M -1.1854068,100.07387 v -4.365628 h 4.6302083 4.630208 v 4.365628 4.36562 h -4.630208 -4.6302083 z m 180.1812568,0 v -4.365628 h 4.63021 4.63021 v 4.365628 4.36562 h -4.63021 -4.63021 z M -1.1854068,54.69783 v -4.497916 h 4.6302083 4.630208 v 4.497916 4.497917 h -4.630208 -4.6302083 z m 180.1812568,0 v -4.497916 h 4.63021 4.63021 v 4.497916 4.497917 h -4.63021 -4.63021 z M 8.0750095,45.437414 v -4.497917 h 4.6302085 4.630208 v 4.497917 4.497916 H 12.705218 8.0750095 Z m 161.3958405,0 v -4.497917 h 4.63021 4.63021 v 4.497917 4.497916 h -4.63021 -4.63021 z M 17.600009,36.441581 v -4.497917 h 4.630209 4.630208 v 4.497917 4.497916 h -4.630208 -4.630209 z m 142.345841,0 v -4.497917 h 4.63021 4.63021 v 4.497917 4.497916 h -4.63021 -4.63021 z M 27.125009,27.313456 v -4.365625 h 4.630209 4.630208 v 4.365625 4.365625 h -4.630208 -4.630209 z m 123.295841,0 v -4.365625 h 4.63021 4.63021 v 4.365625 4.365625 h -4.63021 -4.63021 z M 46.175009,18.185331 v -4.497916 h 4.630209 4.630208 v 4.497916 4.497917 h -4.630208 -4.630209 z m 85.195841,0 v -4.497916 h 4.7625 4.7625 v 4.497916 4.497917 h -4.7625 -4.7625 z"
                id="path2821"/>
            <path
                style="fill:#2b2b2b;stroke-width:0.264583"
                d="m 84.010426,191.09053 v -31.61771 h 9.392707 9.392717 v 31.61771 31.61771 h -9.392717 -9.392707 z m -94.720833,-22.75416 v -36.38021 h 4.6302085 4.6302083 v 4.63021 4.6302 h 4.7624997 4.7625 v 31.75 31.75 h -9.392708 -9.3927085 z m 189.706257,4.63631 v -31.74389 l 4.69635,-0.0723 4.69636,-0.0723 0.0724,-4.56406 0.0724,-4.56406 h 4.62395 4.62397 v 36.38021 36.3802 h -9.39271 -9.39271 z M 46.175009,136.58637 v -4.36563 h 4.630209 4.630208 v 4.36563 4.36562 h -4.630208 -4.630209 z m 85.460421,0 v -4.36563 h 4.63021 4.63021 v 4.36563 4.36562 h -4.63021 -4.63021 z M 27.125009,127.45824 v -4.49791 h 4.630209 4.630208 v 4.49791 4.49792 h -4.630208 -4.630209 z m 123.295841,0 v -4.49791 h 4.63021 4.63021 v 4.49791 4.49792 h -4.63021 -4.63021 z M 27.125009,27.313456 v -4.365625 h 4.630209 4.630208 v 4.365625 4.365625 h -4.630208 -4.630209 z m 123.295841,0 v -4.365625 h 4.63021 4.63021 v 4.365625 4.365625 h -4.63021 -4.63021 z M 46.175009,18.185331 v -4.497916 h 4.630209 4.630208 v 4.497916 4.497917 h -4.630208 -4.630209 z m 85.460421,0 v -4.497916 h 4.63021 4.63021 v 4.497916 4.497917 h -4.63021 -4.63021 z"
                id="path2819"/>
            <path
                style="fill:#071945;stroke-width:0.264583"
                d="m 84.010426,191.09053 v -31.61771 h 9.392707 9.392717 v 31.61771 31.61771 h -9.392717 -9.392707 z m -94.720833,-22.75416 v -36.38021 h 4.6302085 4.6302083 v 4.63021 4.6302 h 4.7624997 4.7625 v 31.75 31.75 h -9.392708 -9.3927085 z m 189.706257,4.63631 v -31.74389 l 4.69635,-0.0723 4.69636,-0.0723 0.0724,-4.56406 0.0724,-4.56406 h 4.62395 4.62397 v 36.38021 36.3802 h -9.39271 -9.39271 z"
                id="path2817"/>
            <path
                style="fill:#000000;stroke-width:0.264583"
                d="m 84.010426,159.47282 h 9.392707 l 10.444877,-0.22891 -0.78547,63.46436 -9.659407,-3e-5 h -9.392707 z m -95.391563,-27.56358 5.3009385,0.3115 h 4.6302083 v 4.49792 4.49791 h 4.7624997 4.7625 c 0,0 -0.17544,64.29915 0.00955,63.83059 -6.2618054,0 -12.8891709,-0.0556 -19.1509765,-0.0556 0.01379,-24.61482 0.130518,-48.81388 -0.314718,-73.08231 z m 190.027527,9.30735 5.11196,-2e-5 h 4.7625 v -4.49791 -4.49792 c 3.08681,0 6.337,-0.27807 9.42381,-0.27807 0.70499,24.07254 -0.0696,48.9547 0.2046,73.05692 -6.19082,0.041 -13.086,-0.14521 -19.44374,0.11827 -0.0811,-21.23195 -0.0591,-42.60011 -0.0591,-63.90127 z"
                id="path2815"
                sodipodi:nodetypes="cccccccccccccccccccccccccccc"
                inkscape:transform-center-x="9.4709076"
                inkscape:transform-center-y="-20.901962"/>
        </g>
    </g>
</svg>
